<svg xmlns="http://www.w3.org/2000/svg" viewBox="0 0 512 512" id="joystick">
  <rect width="480" height="272" x="16.25" y="191.75" fill="#57565c" rx="20"></rect>
  <rect width="48" height="32" x="224.25" y="159.75" fill="#898890"></rect>
  <circle cx="112.25" cy="359.75" r="72" fill="#898890"></circle>
  <circle cx="112.25" cy="359.75" r="48" fill="#57565c"></circle>
  <circle cx="400.25" cy="359.75" r="72" fill="#898890"></circle>
  <circle cx="400.25" cy="359.75" r="48" fill="#57565c"></circle>
  <rect width="128" height="40" x="192.25" y="223.75" fill="#78b9eb"></rect>
  <circle cx="224.25" cy="319.75" r="16" fill="#ffda44"></circle>
  <circle cx="288.25" cy="319.75" r="16" fill="#ffda44"></circle>
  <rect width="96" height="64" x="208.25" y="367.75" fill="#78b9eb"></rect>
  <circle cx="248.25" cy="71.75" r="24" fill="#ffda44"></circle>
  <g>
    <path d="M476,184H280V160a8,8,0,0,0-8-8H256V102.99a32,32,0,1,0-16,0V152H224a8,8,0,0,0-8,8v24H36A28.031,28.031,0,0,0,8,212V444a28.031,28.031,0,0,0,28,28H476a28.031,28.031,0,0,0,28-28V212A28.031,28.031,0,0,0,476,184ZM232,72a16,16,0,1,1,16,16A16.021,16.021,0,0,1,232,72Zm0,96h32v16H232ZM488,444a12.01,12.01,0,0,1-12,12H36a12.01,12.01,0,0,1-12-12V212a12.01,12.01,0,0,1,12-12H476a12.01,12.01,0,0,1,12,12Z"></path>
    <path d="M112,280a80,80,0,1,0,80,80A80.091,80.091,0,0,0,112,280Zm0,144a64,64,0,1,1,64-64A64.072,64.072,0,0,1,112,424Z"></path>
    <path d="M112 304a56 56 0 1056 56A56.063 56.063 0 00112 304zm0 96a40 40 0 1140-40A40.045 40.045 0 01112 400zM400 280a80 80 0 1080 80A80.091 80.091 0 00400 280zm0 144a64 64 0 1164-64A64.072 64.072 0 01400 424z"></path>
    <path d="M400 304a56 56 0 1056 56A56.063 56.063 0 00400 304zm0 96a40 40 0 1140-40A40.045 40.045 0 01400 400zM328 264V224a8 8 0 00-8-8H192a8 8 0 00-8 8v40a8 8 0 008 8H320A8 8 0 00328 264zm-16-8H200V232H312zM200 320a24 24 0 1024-24A24.027 24.027 0 00200 320zm32 0a8 8 0 11-8-8A8.009 8.009 0 01232 320zM288 296a24 24 0 1024 24A24.027 24.027 0 00288 296zm0 32a8 8 0 118-8A8.009 8.009 0 01288 328zM304 360H208a8 8 0 00-8 8v64a8 8 0 008 8h96a8 8 0 008-8V368A8 8 0 00304 360zm-8 64H216V376h80z"></path>
  </g>
</svg>
